<mxfile host="app.diagrams.net" modified="2024-03-04T08:56:46.564Z" agent="Mozilla/5.0 (Macintosh; Intel Mac OS X 10_15_7) AppleWebKit/537.36 (KHTML, like Gecko) Chrome/121.0.0.0 Safari/537.36" version="21.3.7" etag="qQLWOBQ1VomnCdauW1Ts" type="github">
  <diagram name="第 1 页" id="H1_fMZVKsq2Y4o-7Z1ZO">
    <mxGraphModel>
      <root>
        <mxCell id="0" />
        <mxCell id="1" parent="0" />
      </root>
    </mxGraphModel>
  </diagram>
</mxfile>
